<mxfile host="app.diagrams.net" modified="2024-02-23T17:52:00.627Z" agent="Mozilla/5.0 (Windows NT 10.0; Win64; x64) AppleWebKit/537.36 (KHTML, like Gecko) Chrome/121.0.0.0 Safari/537.36" version="22.1.21" etag="WIHZl7fDjWDUfdkYLvOG" type="github">
  <diagram name="PÃ¡gina-1" id="o6DMx3r2hP7eqKzO2srS">
    <mxGraphModel>
      <root>
        <mxCell id="0" />
        <mxCell id="1" parent="0" />
      </root>
    </mxGraphModel>
  </diagram>
</mxfile>
